<?xml version="1.0" encoding="UTF-8" standalone="no"?>
<!DOCTYPE svg PUBLIC "-//W3C//DTD SVG 1.1//EN" "http://www.w3.org/Graphics/SVG/1.1/DTD/svg11.dtd">
<svg width="100%" height="100%" viewBox="0 0 459 429" version="1.1" xmlns="http://www.w3.org/2000/svg" xmlns:xlink="http://www.w3.org/1999/xlink" xml:space="preserve" xmlns:serif="http://www.serif.com/" style="fill-rule:evenodd;clip-rule:evenodd;stroke-linejoin:round;stroke-miterlimit:2;">
    <g transform="matrix(1,0,0,1,-198,-2378)">
        <g transform="matrix(2.315165,0,0,2.315165,60.899369,2209.790596)">
            <path d="M156.273,195.249L158.319,186.583C174.711,189.312 206.566,179.568 210.925,155.89C215.284,132.212 195.991,113.775 176.269,110.554C173.481,109.872 166.579,110.992 165.204,116.971L151.09,178.329C132.897,173.7 127.762,158.801 127.962,147.971C128.242,132.796 138.378,118.975 155.586,116.691C158.599,116.129 159.317,110.247 154.866,110.509C132.196,111.157 115.097,130.066 114.675,147.971C114.252,165.875 130.971,181.912 149.207,185.014L146.849,195.249C145.24,202.623 149.298,207.359 152.875,209.64C164.592,217.113 186.724,215.51 205.429,205.444C224.133,195.378 238.505,173.438 238.344,147.971C238.17,120.631 213.918,81.221 163.714,81.221C121.686,81.222 81.206,114.364 81.206,163.73C81.206,205.117 110.631,236.69 144.752,244.05C169.306,249.346 196.22,247.756 222.5,233.757C230.55,229.468 221.736,218.991 217.162,222.651C192.231,238.109 171.365,240.076 147.056,234.29C118.026,227.379 97.829,199.385 98.996,163.73C100.329,122.954 128.772,79.869 180.781,91.443C211.067,99.501 224.079,117.905 223.75,147.971C223.484,172.216 214.192,187.259 197.862,197.877C181.532,208.496 152.663,210.539 156.273,195.249ZM178.531,118.282C193.703,124.439 199.275,136.627 199.388,147.971C199.602,169.266 179.194,183.156 159.86,180.055L174.037,120.009C174.544,117.718 176.53,117.47 178.531,118.282Z" style="fill:#0d9488;"/>
        </g>
    </g>
</svg>
