<?xml version="1.0" encoding="utf-8"?>
<!-- Generator: Adobe Illustrator 25.2.1, SVG Export Plug-In . SVG Version: 6.00 Build 0)  -->
<svg version="1.1" xmlns="http://www.w3.org/2000/svg" xmlns:xlink="http://www.w3.org/1999/xlink" x="0px" y="0px"
   viewBox="0 0 790 799.88" style="enable-background:new 0 0 790 799.88;" xml:space="preserve">
<g id="BG">
</g>
<g id="Layer_5">
</g>
<g id="Layer_2">
</g>
<g id="Layer_3">
</g>
<g id="Layer_4">
  <g>
    <g>
      <path d="M392.65,788.67c-103.09,0-200.01-40.15-272.91-113.04C46.84,602.73,6.7,505.81,6.7,402.72
        c0-103.09,40.15-200.01,113.04-272.91S289.56,16.76,392.65,16.76c103.09,0,200.01,40.15,272.91,113.04
        c72.9,72.9,113.04,169.82,113.04,272.91c0,103.09-40.15,200.01-113.04,272.91C592.66,748.52,495.74,788.67,392.65,788.67z
         M392.65,37.44c-201.41,0-365.27,163.86-365.27,365.27s163.86,365.27,365.27,365.27s365.27-163.86,365.27-365.27
        S594.06,37.44,392.65,37.44z"/>
      <g>
        <g>
          <polygon points="343.78,233.22 281.88,233.22 266.59,217.92 271.03,213.48 284.49,226.93 341.18,226.93 368.98,199.12 
            368.98,103.84 320.42,103.84 290.82,133.45 290.82,174.87 311.46,195.51 307.02,199.95 284.53,177.47 284.53,130.84 
            317.82,97.56 375.27,97.56 375.27,201.73           "/>
          <polygon points="217.78,321.94 172.68,321.94 172.68,315.65 215.17,315.65 238.26,292.56 238.26,257.88 207.27,226.88 
            207.27,170.37 248.64,129 287.68,129 287.68,135.29 251.25,135.29 213.56,172.98 213.56,224.28 244.55,255.28 244.55,295.16 
                      "/>
          <polygon points="146.87,285.53 134.04,272.7 134.04,229.21 174.07,189.18 210.41,189.18 210.41,195.47 176.68,195.47 
            140.33,231.82 140.33,270.1 151.32,281.09          "/>
          <polygon points="351.64,335.64 309.28,335.64 288.93,315.29 293.38,310.84 311.89,329.35 349.04,329.35 368.98,309.4 
            368.98,272.93 353.26,257.21 353.26,216.31 359.55,216.31 359.55,254.6 375.27,270.32 375.27,312.01          "/>
          <polygon points="375.27,707.88 354.36,707.88 331.3,684.81 292.08,684.81 250.44,643.17 223.21,643.17 186.65,606.6 
            165.45,606.6 133.41,574.57 133.41,507.38 105.38,479.34 105.38,401.55 88.84,385.01 88.84,331.36 114.16,306.04 
            114.16,279.41 134.96,258.61 139.41,263.06 120.45,282.02 120.45,308.64 95.13,333.96 95.13,382.4 111.67,398.94 
            111.67,476.74 139.7,504.77 139.7,571.97 168.05,600.31 189.25,600.31 225.82,636.88 253.04,636.88 294.68,678.52 
            333.9,678.52 356.97,701.59 368.98,701.59 368.98,645.15 368.87,589.45 368.87,567.5 339.11,537.74 339.11,498.97 
            369.43,468.65 369.43,395.34 335.79,361.69 305.15,361.69 283.59,383.26 258.03,383.26 258.03,376.97 280.98,376.97 
            302.55,355.4 338.39,355.4 375.72,392.73 375.72,471.26 345.4,501.58 345.4,535.13 375.16,564.89 375.16,589.44 375.27,645.14 
                      "/>
          <polygon points="292.32,277.69 286.03,277.69 286.03,258.12 316.3,227.85 320.75,232.3 292.32,260.73          "/>
          <polygon points="194.26,275.87 175.82,257.43 175.82,235.46 182.11,235.46 182.11,254.82 198.71,271.42          "/>
          <polygon points="244.55,197.73 238.26,197.73 238.26,183.4 254.01,167.66 258.46,172.1 244.55,186.01          "/>
          <polygon points="338.89,170.78 332.6,170.78 332.6,150.97 322.29,140.66 326.74,136.21 338.89,148.36          "/>
          <polygon points="318.2,297.43 313.75,292.99 329.45,277.29 329.45,264.21 335.74,264.21 335.74,279.89           "/>
          <polygon points="134.02,357.63 129.58,353.18 146.18,336.58 146.18,315.42 152.46,315.42 152.46,339.19          "/>
          <polygon points="170.39,430.87 136.74,430.87 136.74,424.58 167.78,424.58 186.6,405.76 186.6,375.12 166.86,355.38 
            171.31,350.93 192.89,372.52 192.89,408.37           "/>
          <polygon points="274.2,345.97 239.21,345.97 214.48,321.24 218.93,316.79 241.81,339.68 274.2,339.68          "/>
          <polygon points="291.27,425.93 245.5,425.93 222.54,402.98 222.54,355.45 236.94,341.05 241.39,345.5 228.83,358.05 
            228.83,400.37 248.1,419.64 291.27,419.64          "/>
          <polygon points="312.59,491.27 308.14,486.82 330.8,464.16 330.8,412.41 312.41,394.01 316.85,389.57 337.09,409.8 
            337.09,466.76           "/>
          <rect x="357.7" y="321.99" width="6.29" height="60.31"/>
          <polygon points="185.66,523.41 161,523.41 161,517.12 183.06,517.12 209.96,490.21 209.96,453.38 243.23,420.11 247.67,424.56 
            216.25,455.98 216.25,492.82           "/>
          <polygon points="345.18,593.6 317.71,593.6 296.89,572.78 296.89,542.45 268.81,514.38 268.81,470 286.35,452.46 290.8,456.9 
            275.1,472.6 275.1,511.77 303.18,539.85 303.18,570.17 320.31,587.31 345.18,587.31          "/>
          <polygon points="186.63,478.46 173.17,465.01 133.15,465.01 133.15,458.72 175.78,458.72 191.07,474.02          "/>
          <polygon points="213.31,601.32 208.86,596.88 225.69,580.05 225.69,531.09 245.02,511.75 249.47,516.2 231.97,533.7 
            231.97,582.66           "/>
          <polygon points="209.96,568.33 175.42,568.33 157.88,550.79 162.32,546.34 178.02,562.04 209.96,562.04          "/>
          <polygon points="342.95,654.56 322.31,633.92 295.36,633.92 263.87,602.43 263.87,558 270.16,558 270.16,599.82 297.96,627.63 
            324.92,627.63 347.4,650.11          "/>
          <circle cx="345.63" cy="652.78" r="10.78"/>
          
            <ellipse transform="matrix(0.7071 -0.7071 0.7071 0.7071 -316.2577 418.0678)" cx="346.52" cy="590.79" rx="10.78" ry="10.78"/>
          <circle cx="267.46" cy="558.45" r="10.78"/>
          <ellipse transform="matrix(0.1607 -0.987 0.987 0.1607 -413.3654 711.6311)" cx="211.76" cy="598.88" rx="10.78" ry="10.78"/>
          <circle cx="246.8" cy="513.53" r="10.78"/>
          <circle cx="207.27" cy="565.63" r="10.78"/>
          <circle cx="159.65" cy="546.77" r="10.78"/>
          <ellipse transform="matrix(0.1607 -0.987 0.987 0.1607 -379.6868 591.3181)" cx="157.85" cy="518.92" rx="10.78" ry="10.78"/>
          <circle cx="189.3" cy="475.79" r="10.78"/>
          
            <ellipse transform="matrix(0.9228 -0.3852 0.3852 0.9228 -140.3493 145.0009)" cx="291.72" cy="422.79" rx="10.78" ry="10.78"/>
          <circle cx="289.02" cy="455.13" r="10.78"/>
          <circle cx="309.69" cy="489.27" r="10.78"/>
          <circle cx="315.08" cy="391.34" r="10.78"/>
          <ellipse transform="matrix(0.7071 -0.7071 0.7071 0.7071 -193.3898 294.235)" cx="258.48" cy="380.56" rx="10.78" ry="10.78"/>
          <ellipse transform="matrix(0.1607 -0.987 0.987 0.1607 -308.8437 491.352)" cx="134.5" cy="427.28" rx="10.78" ry="10.78"/>
          <ellipse transform="matrix(0.1607 -0.987 0.987 0.1607 -207.6104 464.8588)" cx="169.53" cy="354.51" rx="10.78" ry="10.78"/>
          <circle cx="131.8" cy="356.3" r="10.78"/>
          <circle cx="148.87" cy="309.58" r="10.78"/>
          <circle cx="148.87" cy="280.83" r="10.78"/>
          <ellipse transform="matrix(0.1607 -0.987 0.987 0.1607 -106.0694 424.3527)" cx="196.49" cy="274.55" rx="10.78" ry="10.78"/>
          <circle cx="178.52" cy="234.12" r="10.78"/>
          <circle cx="175.82" cy="318.57" r="10.78"/>
          
            <ellipse transform="matrix(0.9228 -0.3852 0.3852 0.9228 -110.8652 132.2547)" cx="274.65" cy="342.83" rx="10.78" ry="10.78"/>
          <ellipse transform="matrix(0.1417 -0.9899 0.9899 0.1417 -60.3936 556.705)" cx="290.82" cy="313.18" rx="10.78" ry="10.78"/>
          <circle cx="315.98" cy="295.21" r="10.78"/>
          <ellipse transform="matrix(0.15 -0.9887 0.9887 0.15 26.745 549.6544)" cx="333.05" cy="259.27" rx="10.78" ry="10.78"/>
          <circle cx="289.02" cy="276.34" r="10.78"/>
          <circle cx="268.36" cy="216.15" r="10.78"/>
          <ellipse transform="matrix(0.9228 -0.3852 0.3852 0.9228 -60.4799 108.8417)" cx="241.41" cy="205.37" rx="10.78" ry="10.78"/>
          <circle cx="259.38" cy="164.94" r="10.78"/>
          <circle cx="307.89" cy="196.38" r="10.78"/>
          <circle cx="335.74" cy="177.52" r="10.78"/>
          <circle cx="320.47" cy="134.39" r="10.78"/>
          <ellipse transform="matrix(0.2308 -0.973 0.973 0.2308 -346.8885 484.0296)" cx="132.7" cy="461.42" rx="10.78" ry="10.78"/>
        </g>
        <g>
          <polygon points="503.42,233.22 441.52,233.22 410.03,201.73 410.03,97.56 467.48,97.56 500.77,130.84 500.77,177.47 
            478.28,199.95 473.84,195.51 494.48,174.87 494.48,133.45 464.88,103.84 416.32,103.84 416.32,199.12 444.12,226.93 
            500.81,226.93 514.27,213.48 518.71,217.92           "/>
          <polygon points="612.62,321.94 567.52,321.94 540.75,295.16 540.75,255.28 571.74,224.28 571.74,172.98 534.06,135.29 
            497.62,135.29 497.62,129 536.66,129 578.03,170.37 578.03,226.88 547.04,257.88 547.04,292.56 570.13,315.65 612.62,315.65 
                      "/>
          <polygon points="638.43,285.53 633.99,281.09 644.97,270.1 644.97,231.82 608.62,195.47 574.89,195.47 574.89,189.18 
            611.23,189.18 651.26,229.21 651.26,272.7          "/>
          <polygon points="476.02,335.64 433.66,335.64 410.03,312.01 410.03,270.32 425.75,254.6 425.75,216.31 432.04,216.31 
            432.04,257.21 416.32,272.93 416.32,309.4 436.26,329.35 473.41,329.35 491.92,310.84 496.37,315.29          "/>
          <polygon points="430.94,707.88 410.03,707.88 410.03,645.15 410.14,589.44 410.14,564.89 439.9,535.13 439.9,501.58 
            409.58,471.26 409.58,392.73 446.91,355.4 482.75,355.4 504.32,376.97 527.27,376.97 527.27,383.26 501.71,383.26 
            480.15,361.69 449.51,361.69 415.87,395.34 415.87,468.65 446.19,498.97 446.19,537.74 416.43,567.5 416.43,589.44 
            416.32,645.15 416.32,701.59 428.33,701.59 451.4,678.52 490.62,678.52 532.26,636.88 559.48,636.88 596.05,600.31 
            617.25,600.31 645.6,571.97 645.6,504.77 673.63,476.74 673.63,398.94 690.17,382.4 690.17,333.96 664.85,308.64 
            664.85,282.02 645.89,263.06 650.34,258.61 671.14,279.41 671.14,306.04 696.46,331.36 696.46,385.01 679.92,401.55 
            679.92,479.34 651.89,507.38 651.89,574.57 619.86,606.6 598.65,606.6 562.09,643.17 534.86,643.17 493.22,684.81 
            454.01,684.81           "/>
          <polygon points="499.27,277.69 492.98,277.69 492.98,260.73 464.55,232.3 469,227.85 499.27,258.12          "/>
          <polygon points="591.04,275.87 586.59,271.42 603.19,254.82 603.19,235.46 609.48,235.46 609.48,257.43          "/>
          <polygon points="547.04,197.73 540.75,197.73 540.75,186.01 526.84,172.1 531.29,167.66 547.04,183.4          "/>
          <polygon points="452.7,170.78 446.41,170.78 446.41,148.36 458.56,136.21 463.01,140.66 452.7,150.97          "/>
          <polygon points="467.1,297.43 449.56,279.89 449.56,264.21 455.85,264.21 455.85,277.29 471.55,292.99           "/>
          <polygon points="651.28,357.63 632.84,339.19 632.84,315.42 639.13,315.42 639.13,336.58 655.72,353.18          "/>
          <polygon points="648.56,430.87 614.91,430.87 592.41,408.37 592.41,372.52 613.99,350.93 618.44,355.38 598.7,375.12 
            598.7,405.76 617.52,424.58 648.56,424.58          "/>
          <polygon points="546.09,345.97 511.1,345.97 511.1,339.68 543.49,339.68 566.38,316.79 570.82,321.24          "/>
          <polygon points="539.81,425.93 494.03,425.93 494.03,419.64 537.2,419.64 556.47,400.37 556.47,358.05 543.92,345.5 
            548.36,341.05 562.76,355.45 562.76,402.98           "/>
          <polygon points="472.71,491.27 448.21,466.76 448.21,409.8 468.45,389.57 472.89,394.01 454.5,412.41 454.5,464.16 
            477.16,486.82           "/>
          <rect x="421.31" y="321.99" width="6.29" height="60.31"/>
          <polygon points="624.3,523.41 599.64,523.41 569.05,492.82 569.05,455.98 537.63,424.56 542.07,420.11 575.34,453.38 
            575.34,490.21 602.25,517.12 624.3,517.12          "/>
          <polygon points="467.59,593.6 440.12,593.6 440.12,587.31 464.99,587.31 482.13,570.17 482.13,539.85 510.2,511.77 
            510.2,472.6 494.5,456.9 498.95,452.46 516.49,470 516.49,514.38 488.42,542.45 488.42,572.78          "/>
          <polygon points="598.67,478.46 594.23,474.02 609.52,458.72 652.15,458.72 652.15,465.01 612.13,465.01          "/>
          <polygon points="571.99,601.32 553.33,582.66 553.33,533.7 535.83,516.2 540.28,511.75 559.62,531.09 559.62,580.05 
            576.44,596.88           "/>
          <polygon points="609.88,568.33 575.34,568.33 575.34,562.04 607.28,562.04 622.98,546.34 627.42,550.79          "/>
          <polygon points="442.35,654.56 437.9,650.11 460.38,627.63 487.34,627.63 515.14,599.82 515.14,558 521.43,558 521.43,602.43 
            489.94,633.92 462.99,633.92           "/>
          <circle cx="439.68" cy="652.78" r="10.78"/>
          
            <ellipse transform="matrix(0.3307 -0.9437 0.9437 0.3307 -263.8864 809.4758)" cx="438.78" cy="590.79" rx="10.78" ry="10.78"/>
          <circle cx="517.84" cy="558.45" r="10.78"/>
          
            <ellipse transform="matrix(0.9732 -0.2298 0.2298 0.9732 -122.2513 147.7938)" cx="573.54" cy="598.88" rx="10.78" ry="10.78"/>
          <circle cx="538.5" cy="513.53" r="10.78"/>
          <circle cx="578.03" cy="565.63" r="10.78"/>
          <circle cx="625.65" cy="546.77" r="10.78"/>
          <ellipse transform="matrix(0.7071 -0.7071 0.7071 0.7071 -183.155 595.6585)" cx="627.45" cy="518.92" rx="10.78" ry="10.78"/>
          <circle cx="596" cy="475.79" r="10.78"/>
          <ellipse transform="matrix(0.7071 -0.7071 0.7071 0.7071 -154.388 472.8453)" cx="493.58" cy="422.79" rx="10.78" ry="10.78"/>
          <circle cx="496.28" cy="455.13" r="10.78"/>
          <circle cx="475.61" cy="489.27" r="10.78"/>
          <circle cx="470.22" cy="391.34" r="10.78"/>
          <ellipse transform="matrix(0.3827 -0.9239 0.9239 0.3827 -26.3748 721.6465)" cx="526.82" cy="380.56" rx="10.78" ry="10.78"/>
          <ellipse transform="matrix(0.9871 -0.1602 0.1602 0.9871 -60.0389 109.7649)" cx="650.8" cy="427.28" rx="10.78" ry="10.78"/>
          <ellipse transform="matrix(0.7071 -0.7071 0.7071 0.7071 -70.3193 539.2448)" cx="615.77" cy="354.51" rx="10.78" ry="10.78"/>
          <circle cx="653.5" cy="356.3" r="10.78"/>
          <circle cx="636.43" cy="309.58" r="10.78"/>
          <circle cx="636.43" cy="280.83" r="10.78"/>
          <ellipse transform="matrix(0.9732 -0.2298 0.2298 0.9732 -47.3264 142.6266)" cx="588.81" cy="274.55" rx="10.78" ry="10.78"/>
          <circle cx="606.78" cy="234.12" r="10.78"/>
          <circle cx="609.48" cy="318.57" r="10.78"/>
          <ellipse transform="matrix(0.3827 -0.9239 0.9239 0.3827 -1.4963 683.4122)" cx="510.65" cy="342.83" rx="10.78" ry="10.78"/>
          <ellipse transform="matrix(0.9871 -0.1602 0.1602 0.9871 -43.7806 83.2509)" cx="494.48" cy="313.18" rx="10.78" ry="10.78"/>
          <circle cx="469.32" cy="295.21" r="10.78"/>
          <ellipse transform="matrix(0.7071 -0.7071 0.7071 0.7071 -50.8714 395.7305)" cx="452.25" cy="259.27" rx="10.78" ry="10.78"/>
          <circle cx="496.28" cy="276.34" r="10.78"/>
          <circle cx="516.94" cy="216.15" r="10.78"/>
          <ellipse transform="matrix(0.9732 -0.2298 0.2298 0.9732 -32.6339 130.4541)" cx="543.89" cy="205.37" rx="10.78" ry="10.78"/>
          <circle cx="525.92" cy="164.94" r="10.78"/>
          <circle cx="477.41" cy="196.38" r="10.78"/>
          <circle cx="449.56" cy="177.52" r="10.78"/>
          <circle cx="464.83" cy="134.39" r="10.78"/>
          <ellipse transform="matrix(0.9871 -0.1602 0.1602 0.9871 -65.4843 110.4935)" cx="652.6" cy="461.42" rx="10.78" ry="10.78"/>
        </g>
      </g>
    </g>
  </g>
</g>
</svg>
